<svg version="1.1" id="Layer_1" xmlns="http://www.w3.org/2000/svg" xmlns:xlink="http://www.w3.org/1999/xlink" x="0px" y="0px"
	 width="100%" viewBox="0 0 730 300" enable-background="new 0 0 730 300" xml:space="preserve">
<path fill="#000000" opacity="1.000000" stroke="none" 
	d="
M567.000000,301.000000 
	C378.045715,301.000000 189.591431,301.000000 1.068576,301.000000 
	C1.068576,201.070007 1.068576,101.139961 1.068576,1.104955 
	C244.333313,1.104955 487.666656,1.104955 730.979919,1.104955 
	C730.979919,101.075279 730.979919,201.037643 730.979919,301.000000 
	C676.473206,301.000000 621.986633,301.000000 567.000000,301.000000 
M509.999115,206.500000 
	C509.999115,140.098694 509.999115,73.697388 509.999115,7.402276 
	C413.592438,7.402276 317.900696,7.402276 222.269623,7.402276 
	C222.269623,103.377518 222.269623,198.951279 222.269623,294.686279 
	C318.230011,294.686279 413.921478,294.686279 509.999115,294.686279 
	C509.999115,265.416779 509.999115,236.458389 509.999115,206.500000 
z"/>
<path fill="#E30815" opacity="1.000000" stroke="none" 
	d="
M509.999115,207.000000 
	C509.999115,236.458389 509.999115,265.416779 509.999115,294.686279 
	C413.921478,294.686279 318.230011,294.686279 222.269623,294.686279 
	C222.269623,198.951279 222.269623,103.377518 222.269623,7.402276 
	C317.900696,7.402276 413.592438,7.402276 509.999115,7.402276 
	C509.999115,73.697388 509.999115,140.098694 509.999115,207.000000 
M253.785446,228.690674 
	C289.447296,275.979156 336.461548,295.313995 394.759827,284.147156 
	C469.478882,269.834900 518.033875,191.605606 498.866577,117.831512 
	C477.859314,36.975452 391.412689,-7.273432 314.555298,24.899391 
	C263.969910,46.074650 235.423981,85.264236 230.057129,140.179916 
	C226.930984,172.167725 235.417709,201.502502 253.785446,228.690674 
z"/>
<path fill="#FDFCFC" opacity="1.000000" stroke="none" 
	d="
M253.553802,228.414642 
	C235.417709,201.502502 226.930984,172.167725 230.057129,140.179916 
	C235.423981,85.264236 263.969910,46.074650 314.555298,24.899391 
	C391.412689,-7.273432 477.859314,36.975452 498.866577,117.831512 
	C518.033875,191.605606 469.478882,269.834900 394.759827,284.147156 
	C336.461548,295.313995 289.447296,275.979156 253.553802,228.414642 
M300.698212,117.082527 
	C296.521851,140.418320 292.345490,163.754105 288.181061,187.023285 
	C294.562897,187.023285 302.098633,187.023285 309.268402,187.023285 
	C309.870605,182.002289 310.356506,177.402634 310.995636,172.824371 
	C311.390930,169.992828 312.330750,167.721069 316.037964,168.160828 
	C319.583801,168.581451 324.138550,166.719925 324.778839,172.672180 
	C325.303650,177.550568 325.837128,182.428024 326.346069,187.115295 
	C341.138245,187.115295 355.752075,187.115295 370.068054,187.115295 
	C369.310181,179.511154 368.577850,172.162994 367.845490,164.814850 
	C368.620209,164.658890 369.394897,164.502914 370.169617,164.346939 
	C372.551270,171.817596 374.932922,179.288254 377.421478,187.094269 
	C384.920563,187.094269 393.132599,187.094269 402.606598,187.094269 
	C396.439941,176.146606 390.706268,165.967575 384.790436,155.465179 
	C395.021881,150.393799 397.250244,141.314514 396.955475,130.815811 
	C400.601807,130.271606 403.925995,129.775467 408.511780,129.091049 
	C407.641205,149.031723 406.812134,168.021332 405.979218,187.099609 
	C413.625793,187.099609 421.190826,187.099609 428.668884,187.099609 
	C427.942749,167.796082 427.227966,148.794037 426.486603,129.084396 
	C431.479309,129.849731 435.147186,130.411972 439.431335,131.068680 
	C439.431335,127.132805 439.431335,123.613693 439.431335,120.094582 
	C450.420807,141.175507 456.059357,163.166260 453.032227,187.039719 
	C461.118195,187.039719 468.825500,187.039719 477.008606,187.039719 
	C473.235168,161.124908 480.613373,137.753052 492.082092,114.601494 
	C484.973480,114.601494 478.825470,114.458626 472.696930,114.740005 
	C471.657166,114.787743 470.202637,116.491737 469.793976,117.715736 
	C468.165527,122.593567 466.874878,127.584183 465.459167,132.533035 
	C463.069092,127.927986 461.697510,123.375648 460.675079,118.746193 
	C459.992584,115.655983 458.629120,114.474121 455.277344,114.505272 
	C436.616760,114.678741 417.953796,114.581749 399.291656,114.604057 
	C398.012115,114.605583 396.732849,114.825493 395.290344,114.958931 
	C395.153137,117.762474 395.029663,120.285149 394.944672,122.021629 
	C390.578033,119.577660 386.517334,115.561913 382.154205,115.200867 
	C370.629791,114.247223 358.974243,114.877930 348.132507,114.877930 
	C348.132507,136.149841 348.132507,157.086533 348.132507,178.023239 
	C340.594788,157.553452 337.023956,136.385071 334.668945,114.611557 
	C323.934296,114.611557 313.470612,114.579826 303.008209,114.678703 
	C302.263367,114.685745 301.527588,115.651268 300.698212,117.082527 
M242.356323,156.501663 
	C241.830826,166.694153 241.305344,176.886642 240.783051,187.017059 
	C241.364410,187.194092 241.675064,187.370514 241.986267,187.371475 
	C249.970276,187.396240 257.955597,187.495438 265.938080,187.389053 
	C276.164825,187.252747 283.774384,182.081192 287.300476,172.439575 
	C292.513000,158.186523 292.499512,143.775620 287.287506,129.516159 
	C284.554840,122.039932 279.320831,116.108017 271.354065,115.310616 
	C261.228729,114.297157 250.925049,115.065315 241.046417,115.065315 
	C241.486847,128.661652 241.921585,142.081604 242.356323,156.501663 
z"/>
<path fill="#21211F" opacity="1.000000" stroke="none" 
	d="
M300.742889,116.626816 
	C301.527588,115.651268 302.263367,114.685745 303.008209,114.678703 
	C313.470612,114.579826 323.934296,114.611557 334.668945,114.611557 
	C337.023956,136.385071 340.594788,157.553452 348.132507,178.023239 
	C348.132507,157.086533 348.132507,136.149841 348.132507,114.877930 
	C358.974243,114.877930 370.629791,114.247223 382.154205,115.200867 
	C386.517334,115.561913 390.578033,119.577660 394.944672,122.021629 
	C395.029663,120.285149 395.153137,117.762474 395.290344,114.958931 
	C396.732849,114.825493 398.012115,114.605583 399.291656,114.604057 
	C417.953796,114.581749 436.616760,114.678741 455.277344,114.505272 
	C458.629120,114.474121 459.992584,115.655983 460.675079,118.746193 
	C461.697510,123.375648 463.069092,127.927986 465.459167,132.533035 
	C466.874878,127.584183 468.165527,122.593567 469.793976,117.715736 
	C470.202637,116.491737 471.657166,114.787743 472.696930,114.740005 
	C478.825470,114.458626 484.973480,114.601494 492.082092,114.601494 
	C480.613373,137.753052 473.235168,161.124908 477.008606,187.039719 
	C468.825500,187.039719 461.118195,187.039719 453.032227,187.039719 
	C456.059357,163.166260 450.420807,141.175507 439.431335,120.094582 
	C439.431335,123.613693 439.431335,127.132805 439.431335,131.068680 
	C435.147186,130.411972 431.479309,129.849731 426.486603,129.084396 
	C427.227966,148.794037 427.942749,167.796082 428.668884,187.099609 
	C421.190826,187.099609 413.625793,187.099609 405.979218,187.099609 
	C406.812134,168.021332 407.641205,149.031723 408.511780,129.091049 
	C403.925995,129.775467 400.601807,130.271606 396.955475,130.815811 
	C397.250244,141.314514 395.021881,150.393799 384.790436,155.465179 
	C390.706268,165.967575 396.439941,176.146606 402.606598,187.094269 
	C393.132599,187.094269 384.920563,187.094269 377.421478,187.094269 
	C374.932922,179.288254 372.551270,171.817596 370.169617,164.346939 
	C369.394897,164.502914 368.620209,164.658890 367.845490,164.814850 
	C368.577850,172.162994 369.310181,179.511154 370.068054,187.115295 
	C355.752075,187.115295 341.138245,187.115295 326.346069,187.115295 
	C325.837128,182.428024 325.303650,177.550568 324.778839,172.672180 
	C324.138550,166.719925 319.583801,168.581451 316.037964,168.160828 
	C312.330750,167.721069 311.390930,169.992828 310.995636,172.824371 
	C310.356506,177.402634 309.870605,182.002289 309.268402,187.023285 
	C302.098633,187.023285 294.562897,187.023285 288.181061,187.023285 
	C292.345490,163.754105 296.521851,140.418320 300.742889,116.626816 
M375.131470,141.300125 
	C377.629913,133.351089 375.305237,128.327682 369.044983,128.121628 
	C369.044983,133.823456 369.044983,139.515823 369.044983,146.625031 
	C371.594421,144.575073 373.180176,143.300003 375.131470,141.300125 
M315.114349,144.560516 
	C314.652161,147.441513 314.189941,150.322495 313.706604,153.335236 
	C316.705475,153.335236 319.188843,153.335236 322.209717,153.335236 
	C320.950287,146.816559 319.796204,140.843246 318.642151,134.869934 
	C318.132568,134.874069 317.622955,134.878204 317.113373,134.882339 
	C316.500946,137.821594 315.888489,140.760849 315.114349,144.560516 
z"/>
<path fill="#222220" opacity="1.000000" stroke="none" 
	d="
M242.356323,156.001602 
	C241.921585,142.081604 241.486847,128.661652 241.046417,115.065315 
	C250.925049,115.065315 261.228729,114.297157 271.354065,115.310616 
	C279.320831,116.108017 284.554840,122.039932 287.287506,129.516159 
	C292.499512,143.775620 292.513000,158.186523 287.300476,172.439575 
	C283.774384,182.081192 276.164825,187.252747 265.938080,187.389053 
	C257.955597,187.495438 249.970276,187.396240 241.986267,187.371475 
	C241.675064,187.370514 241.364410,187.194092 240.783051,187.017059 
	C241.305344,176.886642 241.830826,166.694153 242.356323,156.001602 
M261.735870,152.499649 
	C261.735870,159.160889 261.735870,165.822113 261.735870,172.483353 
	C273.696716,166.152573 271.561737,155.452682 271.341034,145.775833 
	C271.099274,135.176254 268.255005,131.015930 261.735840,129.619614 
	C261.735840,136.986496 261.735840,144.243149 261.735870,152.499649 
z"/>
<path fill="#F0F0EF" opacity="1.000000" stroke="none" 
	d="
M374.948700,141.662537 
	C373.180176,143.300003 371.594421,144.575073 369.044983,146.625031 
	C369.044983,139.515823 369.044983,133.823456 369.044983,128.121628 
	C375.305237,128.327682 377.629913,133.351089 374.948700,141.662537 
z"/>
<path fill="#E5E5E4" opacity="1.000000" stroke="none" 
	d="
M315.195190,144.130310 
	C315.888489,140.760849 316.500946,137.821594 317.113373,134.882339 
	C317.622955,134.878204 318.132568,134.874069 318.642151,134.869934 
	C319.796204,140.843246 320.950287,146.816559 322.209717,153.335236 
	C319.188843,153.335236 316.705475,153.335236 313.706604,153.335236 
	C314.189941,150.322495 314.652161,147.441513 315.195190,144.130310 
z"/>
<path fill="#F4F4F4" opacity="1.000000" stroke="none" 
	d="
M261.735840,151.999725 
	C261.735840,144.243149 261.735840,136.986496 261.735840,129.619614 
	C268.255005,131.015930 271.099274,135.176254 271.341034,145.775833 
	C271.561737,155.452682 273.696716,166.152573 261.735870,172.483353 
	C261.735870,165.822113 261.735870,159.160889 261.735840,151.999725 
z"/>
</svg>