<svg version="1.1" id="Layer_1" xmlns="http://www.w3.org/2000/svg" xmlns:xlink="http://www.w3.org/1999/xlink" x="0px" y="0px"
	 width="100%" viewBox="0 0 2096 771" enable-background="new 0 0 2096 771" xml:space="preserve">
<path fill="#FFFFFF" opacity="1.000000" stroke="none" 
	d="
M1431.000000,772.000000 
	C954.000000,772.000000 477.500000,772.000000 1.000000,772.000000 
	C1.000000,515.000000 1.000000,258.000000 1.000000,1.000000 
	C699.666687,1.000000 1398.333374,1.000000 2097.000000,1.000000 
	C2097.000000,258.000000 2097.000000,515.000000 2097.000000,772.000000 
	C1875.166626,772.000000 1653.333374,772.000000 1431.000000,772.000000 
M329.500000,379.000000 
	C351.589996,379.000000 373.679993,379.000000 395.616211,379.000000 
	C395.616211,322.928711 395.616211,267.537384 395.616211,212.251190 
	C339.958923,212.251190 284.685699,212.251190 229.295410,212.251190 
	C229.295410,267.893707 229.295410,323.284546 229.295410,379.000000 
	C262.559845,379.000000 295.529907,379.000000 329.500000,379.000000 
M570.463379,212.000000 
	C518.069336,212.000000 465.675232,212.000000 413.310638,212.000000 
	C413.310638,267.986450 413.310638,323.353119 413.310638,378.688324 
	C468.988525,378.688324 524.355164,378.688324 579.687256,378.688324 
	C579.687256,323.009460 579.687256,267.642853 579.687256,212.000000 
	C576.735168,212.000000 574.093201,212.000000 570.463379,212.000000 
M416.682556,396.000305 
	C412.134766,395.193176 413.009247,398.450836 413.008667,400.965942 
	C412.997192,453.294464 412.998016,505.622955 413.009186,557.951477 
	C413.009521,559.551514 413.146362,561.151550 413.213562,562.620483 
	C469.050934,562.620483 524.436829,562.620483 579.749817,562.620483 
	C579.749817,506.972839 579.749817,451.705017 579.749817,396.000000 
	C525.549316,396.000000 471.597778,396.000000 416.682556,396.000305 
M360.500000,563.000000 
	C372.257568,563.000000 384.015106,563.000000 395.611267,563.000000 
	C395.611267,506.923401 395.611267,451.536591 395.611267,396.256134 
	C339.953583,396.256134 284.684937,396.256134 229.300323,396.256134 
	C229.300323,451.899017 229.300323,507.285278 229.300323,563.000000 
	C272.899872,563.000000 316.199951,563.000000 360.500000,563.000000 
M684.000000,458.500000 
	C684.000000,469.921295 684.000000,481.342621 684.000000,492.757172 
	C695.986633,492.757172 707.253052,492.757172 719.067017,492.757172 
	C719.067017,439.560760 719.067017,386.603851 719.067017,332.991852 
	C720.050659,333.857971 720.563965,334.094971 720.718689,334.477173 
	C728.363647,353.357971 735.925964,372.272339 743.606567,391.138550 
	C757.067017,424.201965 770.571228,457.247742 784.202942,490.240631 
	C784.715820,491.482056 786.720825,492.815460 788.084778,492.875702 
	C794.404480,493.154846 800.752808,493.182007 807.067993,492.855743 
	C808.448364,492.784424 810.393677,491.171631 810.965881,489.803345 
	C819.521240,469.346375 827.951111,448.836182 836.286133,428.288025 
	C845.964783,404.427155 855.513062,380.513428 865.136169,356.629944 
	C868.427734,348.460693 871.773987,340.313507 875.489746,331.187439 
	C875.489746,385.657928 875.489746,439.082184 875.489746,492.702179 
	C887.526917,492.702179 899.577332,492.702179 911.654785,492.702179 
	C911.654785,422.361877 911.654785,352.319977 911.654785,282.003967 
	C895.667419,282.003967 880.022766,281.931458 864.381775,282.135651 
	C863.069153,282.152740 861.191650,283.759552 860.582642,285.088745 
	C857.868408,291.012970 855.499512,297.096527 853.043030,303.137604 
	C845.369568,322.008423 837.634155,340.854614 830.069519,359.769012 
	C820.327026,384.128601 810.730713,408.546692 801.055481,432.933197 
	C800.389832,434.610901 799.590820,436.235687 798.620117,438.408051 
	C797.762512,437.120148 797.289673,436.628143 797.064819,436.041138 
	C788.325928,413.225281 779.778076,390.334564 770.847290,367.594238 
	C760.064270,340.137543 748.904663,312.828827 738.081055,285.387878 
	C737.040710,282.750336 735.851501,281.905792 733.130371,281.943054 
	C722.801147,282.084595 712.468811,282.000031 702.137634,282.000000 
	C696.202881,282.000000 690.268127,282.000000 684.000000,282.000000 
	C684.000000,340.915833 684.000000,399.207916 684.000000,458.500000 
M1792.380615,371.000000 
	C1794.146729,371.000000 1795.912720,371.000000 1798.000000,371.000000 
	C1798.000000,392.437195 1797.789185,413.240112 1798.089966,434.035614 
	C1798.237305,444.237152 1798.509766,454.564026 1800.200684,464.585327 
	C1802.557007,478.550140 1810.308228,489.137573 1824.332886,493.601013 
	C1838.919189,498.243195 1853.570068,496.609711 1867.996094,492.389801 
	C1869.215820,492.033020 1870.828613,490.215363 1870.858521,489.040649 
	C1871.094482,479.796875 1870.989502,470.544342 1870.989502,460.627167 
	C1868.252197,461.969330 1866.267212,463.058411 1864.193604,463.938751 
	C1856.406982,467.244415 1844.338257,467.623230 1839.545898,459.706879 
	C1836.897827,455.332581 1835.297974,449.653015 1835.197021,444.522980 
	C1834.744385,421.539246 1834.994873,398.541534 1835.012329,375.548889 
	C1835.013428,374.115845 1835.192139,372.682953 1835.322510,370.737122 
	C1847.407471,370.737122 1859.132202,370.737122 1870.713989,370.737122 
	C1870.713989,360.590790 1870.713989,350.990112 1870.713989,340.853851 
	C1858.712524,340.853851 1846.986938,340.853851 1834.955078,340.853851 
	C1834.955078,325.732758 1834.955078,311.151764 1834.955078,296.250031 
	C1822.439819,300.034943 1810.312134,303.702606 1797.742188,307.503998 
	C1797.742188,318.693024 1797.742188,329.762054 1797.742188,340.730103 
	C1780.288452,340.730103 1763.357422,340.730103 1745.540527,340.730103 
	C1746.078735,331.550018 1745.715820,322.514404 1747.341675,313.852020 
	C1749.383545,302.973236 1756.316650,296.279694 1768.562866,297.106506 
	C1774.317749,297.495026 1779.995850,299.020325 1785.790405,300.044952 
	C1785.790405,290.204132 1785.790405,279.769501 1785.790405,269.346497 
	C1776.394287,266.532501 1767.075439,266.088898 1757.508667,266.919098 
	C1739.304565,268.498962 1725.617554,277.092590 1716.205933,292.538666 
	C1710.187134,302.416504 1709.880615,313.724579 1709.066284,324.802643 
	C1708.680542,330.050232 1709.000000,335.349701 1709.000000,341.153137 
	C1700.706177,341.153137 1692.975220,341.153137 1685.409058,341.153137 
	C1685.409058,351.421661 1685.409058,361.141083 1685.409058,371.214783 
	C1693.419556,371.214783 1701.022461,371.214783 1709.148438,371.214783 
	C1709.148438,411.959991 1709.148438,452.339417 1709.148438,492.600159 
	C1721.737915,492.600159 1733.789795,492.600159 1746.187378,492.600159 
	C1746.187378,451.941437 1746.187378,411.681580 1746.187378,371.000000 
	C1761.496948,371.000000 1776.453003,371.000000 1792.380615,371.000000 
M1288.762085,492.920227 
	C1304.968750,497.103455 1321.268799,497.418091 1337.637451,494.008942 
	C1358.743286,489.613159 1374.782593,478.130951 1384.919556,459.070251 
	C1395.604614,438.978821 1396.934814,417.536255 1393.037964,395.465668 
	C1386.925781,360.847443 1362.990234,341.349030 1330.587158,338.238220 
	C1317.072266,336.940704 1303.399292,337.570068 1289.962280,341.773376 
	C1268.062378,348.623962 1253.102905,362.513763 1245.083008,383.676514 
	C1238.436279,401.215973 1237.380615,419.392181 1240.958252,437.869720 
	C1246.235596,465.126495 1261.483887,483.670776 1288.762085,492.920227 
M1673.098267,373.462921 
	C1672.285400,372.053131 1671.524414,370.610352 1670.651245,369.238892 
	C1663.961060,358.729706 1655.194458,350.272675 1643.881836,345.148773 
	C1624.460693,336.352173 1603.996216,335.971588 1583.495117,340.122467 
	C1559.913330,344.897095 1542.493164,358.511566 1533.390869,380.710815 
	C1524.943115,401.313782 1523.921143,422.896210 1529.829102,444.721252 
	C1536.250977,468.444122 1550.918701,484.087982 1574.037720,492.079041 
	C1588.925171,497.224854 1604.150269,496.864777 1619.452637,495.007080 
	C1634.323853,493.201721 1647.367798,487.181122 1658.392456,477.059082 
	C1673.440674,463.242920 1680.286255,445.376831 1681.838745,425.582855 
	C1683.225708,407.899048 1681.504272,390.403259 1673.098267,373.462921 
M1448.053589,384.971924 
	C1447.077637,377.478210 1449.898315,371.399261 1456.975342,369.272949 
	C1462.917236,367.487671 1469.806030,366.525452 1475.779541,367.707123 
	C1485.341064,369.598602 1494.491821,373.566040 1503.994629,376.715088 
	C1503.994629,367.229706 1504.100586,356.795105 1503.843994,346.369415 
	C1503.815796,345.222717 1501.881592,343.474457 1500.537231,343.119690 
	C1494.402344,341.500763 1488.215576,339.926880 1481.950317,338.981384 
	C1462.494995,336.045288 1443.847656,337.972107 1427.575439,350.198212 
	C1408.628540,364.433960 1406.412598,390.391113 1416.928467,408.256653 
	C1423.714233,419.785248 1435.809937,424.594666 1447.268799,429.990234 
	C1454.198486,433.253082 1461.173340,436.447296 1467.925537,440.051544 
	C1474.066040,443.329315 1475.998291,449.062683 1474.884399,455.587769 
	C1473.820190,461.823273 1469.362427,464.812775 1463.372070,466.057861 
	C1453.961182,468.013977 1444.648804,467.643341 1435.735596,464.222687 
	C1427.316040,460.991516 1419.190552,456.993530 1411.001709,453.362061 
	C1411.001709,463.569214 1410.908447,474.383179 1411.123901,485.191010 
	C1411.149780,486.487152 1412.574463,488.395569 1413.818604,488.929108 
	C1427.503906,494.797363 1441.898926,496.383667 1456.687256,496.068878 
	C1470.658447,495.771545 1483.434448,492.439850 1494.877563,484.077850 
	C1511.969482,471.587830 1515.921753,449.230103 1508.678711,431.514313 
	C1504.595337,421.526093 1496.503052,414.831757 1487.040405,410.082825 
	C1477.698486,405.394379 1468.057495,401.304871 1458.592163,396.857788 
	C1453.711914,394.564880 1449.568481,391.474091 1448.053589,384.971924 
M1094.867676,368.390961 
	C1104.641357,372.030060 1114.415039,375.669159 1123.795166,379.161713 
	C1123.795166,368.562744 1123.795166,356.933105 1123.795166,345.246948 
	C1121.820557,344.444336 1120.024048,343.639740 1118.177246,342.975098 
	C1101.973389,337.143524 1085.221802,336.426422 1068.509033,339.198486 
	C1053.808716,341.636688 1040.443115,347.731567 1029.361816,358.130951 
	C1012.507141,373.948395 1006.497437,394.338623 1005.071777,416.496735 
	C1004.272156,428.924164 1006.327942,441.094452 1011.064880,452.629974 
	C1018.525146,470.797546 1031.348633,483.623047 1049.685669,491.089630 
	C1063.119385,496.559570 1077.095581,496.367767 1091.088989,495.912598 
	C1101.470215,495.574921 1111.457397,492.920624 1120.621338,487.930878 
	C1122.225586,487.057343 1123.782471,484.503418 1123.849731,482.670105 
	C1124.179688,473.682800 1124.012451,464.676666 1123.975098,455.677399 
	C1123.971436,454.811066 1123.650879,453.946045 1123.439575,452.891052 
	C1108.829834,462.367706 1093.842285,468.864380 1076.356323,464.959351 
	C1062.357544,461.833130 1052.316772,453.776703 1046.963745,440.230652 
	C1042.611938,429.218445 1042.015381,417.920593 1043.973145,406.336182 
	C1046.091553,393.801392 1051.891846,383.523895 1062.194824,375.974243 
	C1071.697266,369.011017 1082.616699,367.504333 1094.867676,368.390961 
M1191.906494,389.429260 
	C1195.856812,380.690613 1202.340576,374.364563 1211.650391,372.373474 
	C1220.732422,370.431152 1229.596313,372.907013 1237.999634,377.933289 
	C1237.999634,366.198273 1237.965210,355.372620 1238.024780,344.547455 
	C1238.039062,341.951447 1237.705566,340.449371 1234.451538,339.865967 
	C1214.350220,336.262329 1199.086548,341.615112 1188.890991,360.388641 
	C1188.267212,361.537292 1187.429199,362.569458 1186.690796,363.655823 
	C1186.395264,363.525299 1186.099731,363.394806 1185.804199,363.264282 
	C1185.804199,355.987274 1185.804199,348.710297 1185.804199,341.318054 
	C1173.759644,341.318054 1162.044800,341.318054 1150.353027,341.318054 
	C1150.353027,392.004120 1150.353027,442.371338 1150.353027,492.589691 
	C1162.426392,492.589691 1174.142578,492.589691 1186.000000,492.589691 
	C1186.000000,466.196136 1185.880981,440.211761 1186.068604,414.229584 
	C1186.129028,405.866730 1187.424805,397.606171 1191.906494,389.429260 
M982.000000,435.500000 
	C982.000000,404.092590 982.000000,372.685211 982.000000,341.398926 
	C969.259705,341.398926 957.209961,341.398926 945.254883,341.398926 
	C945.254883,392.045990 945.254883,442.293732 945.254883,492.689514 
	C957.559143,492.689514 969.606689,492.689514 982.000000,492.689514 
	C982.000000,473.754089 982.000000,455.127045 982.000000,435.500000 
M942.001160,296.773346 
	C942.870056,300.874512 942.927063,305.385010 944.751892,309.004150 
	C951.701904,322.788177 975.867981,322.682709 983.535522,309.034790 
	C987.280151,302.369476 986.764160,292.733368 981.806152,285.409058 
	C978.252563,280.159454 966.724548,276.303314 960.767639,277.446381 
	C950.108704,279.491638 944.128662,285.549042 942.001160,296.773346 
z"/>
<path fill="#F25022" opacity="1.000000" stroke="none" 
	d="
M329.000000,379.000000 
	C295.529907,379.000000 262.559845,379.000000 229.295410,379.000000 
	C229.295410,323.284546 229.295410,267.893707 229.295410,212.251190 
	C284.685699,212.251190 339.958923,212.251190 395.616211,212.251190 
	C395.616211,267.537384 395.616211,322.928711 395.616211,379.000000 
	C373.679993,379.000000 351.589996,379.000000 329.000000,379.000000 
z"/>
<path fill="#7FBA00" opacity="1.000000" stroke="none" 
	d="
M570.957336,212.000000 
	C574.093201,212.000000 576.735168,212.000000 579.687256,212.000000 
	C579.687256,267.642853 579.687256,323.009460 579.687256,378.688324 
	C524.355164,378.688324 468.988525,378.688324 413.310638,378.688324 
	C413.310638,323.353119 413.310638,267.986450 413.310638,212.000000 
	C465.675232,212.000000 518.069336,212.000000 570.957336,212.000000 
z"/>
<path fill="#FFB900" opacity="1.000000" stroke="none" 
	d="
M417.164398,396.000153 
	C471.597778,396.000000 525.549316,396.000000 579.749817,396.000000 
	C579.749817,451.705017 579.749817,506.972839 579.749817,562.620483 
	C524.436829,562.620483 469.050934,562.620483 413.213562,562.620483 
	C413.146362,561.151550 413.009521,559.551514 413.009186,557.951477 
	C412.998016,505.622955 412.997192,453.294464 413.008667,400.965942 
	C413.009247,398.450836 412.134766,395.193176 417.164398,396.000153 
z"/>
<path fill="#00A4EF" opacity="1.000000" stroke="none" 
	d="
M360.000000,563.000000 
	C316.199951,563.000000 272.899872,563.000000 229.300323,563.000000 
	C229.300323,507.285278 229.300323,451.899017 229.300323,396.256134 
	C284.684937,396.256134 339.953583,396.256134 395.611267,396.256134 
	C395.611267,451.536591 395.611267,506.923401 395.611267,563.000000 
	C384.015106,563.000000 372.257568,563.000000 360.000000,563.000000 
z"/>
<path fill="#737373" opacity="1.000000" stroke="none" 
	d="
M684.000000,458.000000 
	C684.000000,399.207916 684.000000,340.915833 684.000000,282.000000 
	C690.268127,282.000000 696.202881,282.000000 702.137634,282.000000 
	C712.468811,282.000031 722.801147,282.084595 733.130371,281.943054 
	C735.851501,281.905792 737.040710,282.750336 738.081055,285.387878 
	C748.904663,312.828827 760.064270,340.137543 770.847290,367.594238 
	C779.778076,390.334564 788.325928,413.225281 797.064819,436.041138 
	C797.289673,436.628143 797.762512,437.120148 798.620117,438.408051 
	C799.590820,436.235687 800.389832,434.610901 801.055481,432.933197 
	C810.730713,408.546692 820.327026,384.128601 830.069519,359.769012 
	C837.634155,340.854614 845.369568,322.008423 853.043030,303.137604 
	C855.499512,297.096527 857.868408,291.012970 860.582642,285.088745 
	C861.191650,283.759552 863.069153,282.152740 864.381775,282.135651 
	C880.022766,281.931458 895.667419,282.003967 911.654785,282.003967 
	C911.654785,352.319977 911.654785,422.361877 911.654785,492.702179 
	C899.577332,492.702179 887.526917,492.702179 875.489746,492.702179 
	C875.489746,439.082184 875.489746,385.657928 875.489746,331.187439 
	C871.773987,340.313507 868.427734,348.460693 865.136169,356.629944 
	C855.513062,380.513428 845.964783,404.427155 836.286133,428.288025 
	C827.951111,448.836182 819.521240,469.346375 810.965881,489.803345 
	C810.393677,491.171631 808.448364,492.784424 807.067993,492.855743 
	C800.752808,493.182007 794.404480,493.154846 788.084778,492.875702 
	C786.720825,492.815460 784.715820,491.482056 784.202942,490.240631 
	C770.571228,457.247742 757.067017,424.201965 743.606567,391.138550 
	C735.925964,372.272339 728.363647,353.357971 720.718689,334.477173 
	C720.563965,334.094971 720.050659,333.857971 719.067017,332.991852 
	C719.067017,386.603851 719.067017,439.560760 719.067017,492.757172 
	C707.253052,492.757172 695.986633,492.757172 684.000000,492.757172 
	C684.000000,481.342621 684.000000,469.921295 684.000000,458.000000 
z"/>
<path fill="#737373" opacity="1.000000" stroke="none" 
	d="
M1791.894775,371.000000 
	C1776.453003,371.000000 1761.496948,371.000000 1746.187378,371.000000 
	C1746.187378,411.681580 1746.187378,451.941437 1746.187378,492.600159 
	C1733.789795,492.600159 1721.737915,492.600159 1709.148438,492.600159 
	C1709.148438,452.339417 1709.148438,411.959991 1709.148438,371.214783 
	C1701.022461,371.214783 1693.419556,371.214783 1685.409058,371.214783 
	C1685.409058,361.141083 1685.409058,351.421661 1685.409058,341.153137 
	C1692.975220,341.153137 1700.706177,341.153137 1709.000000,341.153137 
	C1709.000000,335.349701 1708.680542,330.050232 1709.066284,324.802643 
	C1709.880615,313.724579 1710.187134,302.416504 1716.205933,292.538666 
	C1725.617554,277.092590 1739.304565,268.498962 1757.508667,266.919098 
	C1767.075439,266.088898 1776.394287,266.532501 1785.790405,269.346497 
	C1785.790405,279.769501 1785.790405,290.204132 1785.790405,300.044952 
	C1779.995850,299.020325 1774.317749,297.495026 1768.562866,297.106506 
	C1756.316650,296.279694 1749.383545,302.973236 1747.341675,313.852020 
	C1745.715820,322.514404 1746.078735,331.550018 1745.540527,340.730103 
	C1763.357422,340.730103 1780.288452,340.730103 1797.742188,340.730103 
	C1797.742188,329.762054 1797.742188,318.693024 1797.742188,307.503998 
	C1810.312134,303.702606 1822.439819,300.034943 1834.955078,296.250031 
	C1834.955078,311.151764 1834.955078,325.732758 1834.955078,340.853851 
	C1846.986938,340.853851 1858.712524,340.853851 1870.713989,340.853851 
	C1870.713989,350.990112 1870.713989,360.590790 1870.713989,370.737122 
	C1859.132202,370.737122 1847.407471,370.737122 1835.322510,370.737122 
	C1835.192139,372.682953 1835.013428,374.115845 1835.012329,375.548889 
	C1834.994873,398.541534 1834.744385,421.539246 1835.197021,444.522980 
	C1835.297974,449.653015 1836.897827,455.332581 1839.545898,459.706879 
	C1844.338257,467.623230 1856.406982,467.244415 1864.193604,463.938751 
	C1866.267212,463.058411 1868.252197,461.969330 1870.989502,460.627167 
	C1870.989502,470.544342 1871.094482,479.796875 1870.858521,489.040649 
	C1870.828613,490.215363 1869.215820,492.033020 1867.996094,492.389801 
	C1853.570068,496.609711 1838.919189,498.243195 1824.332886,493.601013 
	C1810.308228,489.137573 1802.557007,478.550140 1800.200684,464.585327 
	C1798.509766,454.564026 1798.237305,444.237152 1798.089966,434.035614 
	C1797.789185,413.240112 1798.000000,392.437195 1798.000000,371.000000 
	C1795.912720,371.000000 1794.146729,371.000000 1791.894775,371.000000 
z"/>
<path fill="#737373" opacity="1.000000" stroke="none" 
	d="
M1288.402344,492.728210 
	C1261.483887,483.670776 1246.235596,465.126495 1240.958252,437.869720 
	C1237.380615,419.392181 1238.436279,401.215973 1245.083008,383.676514 
	C1253.102905,362.513763 1268.062378,348.623962 1289.962280,341.773376 
	C1303.399292,337.570068 1317.072266,336.940704 1330.587158,338.238220 
	C1362.990234,341.349030 1386.925781,360.847443 1393.037964,395.465668 
	C1396.934814,417.536255 1395.604614,438.978821 1384.919556,459.070251 
	C1374.782593,478.130951 1358.743286,489.613159 1337.637451,494.008942 
	C1321.268799,497.418091 1304.968750,497.103455 1288.402344,492.728210 
M1336.200073,372.046234 
	C1311.697632,361.699768 1286.718384,371.285339 1279.451538,397.152161 
	C1276.199585,408.728333 1275.910156,420.631409 1278.309570,432.387909 
	C1279.876465,440.066071 1282.612427,447.415436 1287.988281,453.529053 
	C1297.778931,464.663513 1310.592529,467.481995 1324.350342,465.792023 
	C1336.307007,464.323273 1345.615356,458.169098 1351.161377,446.730743 
	C1356.451050,435.820953 1357.366211,424.364319 1356.975586,412.623596 
	C1356.428467,396.178528 1351.801392,381.696808 1336.200073,372.046234 
z"/>
<path fill="#737373" opacity="1.000000" stroke="none" 
	d="
M1673.330078,373.764954 
	C1681.504272,390.403259 1683.225708,407.899048 1681.838745,425.582855 
	C1680.286255,445.376831 1673.440674,463.242920 1658.392456,477.059082 
	C1647.367798,487.181122 1634.323853,493.201721 1619.452637,495.007080 
	C1604.150269,496.864777 1588.925171,497.224854 1574.037720,492.079041 
	C1550.918701,484.087982 1536.250977,468.444122 1529.829102,444.721252 
	C1523.921143,422.896210 1524.943115,401.313782 1533.390869,380.710815 
	C1542.493164,358.511566 1559.913330,344.897095 1583.495117,340.122467 
	C1603.996216,335.971588 1624.460693,336.352173 1643.881836,345.148773 
	C1655.194458,350.272675 1663.961060,358.729706 1670.651245,369.238892 
	C1671.524414,370.610352 1672.285400,372.053131 1673.330078,373.764954 
M1623.520630,462.105591 
	C1631.940430,458.530243 1636.606689,451.594513 1639.978760,443.564606 
	C1645.062988,431.457062 1644.624023,418.626892 1643.787964,406.017395 
	C1643.147705,396.360931 1639.882568,387.016052 1633.095581,379.694977 
	C1615.080200,360.261810 1577.281250,364.751709 1567.891602,393.913177 
	C1563.979858,406.061981 1562.957153,418.321533 1565.110107,430.805634 
	C1566.625000,439.589966 1569.792603,447.815277 1576.004761,454.448883 
	C1587.092407,466.288971 1606.864014,469.635529 1623.520630,462.105591 
z"/>
<path fill="#737373" opacity="1.000000" stroke="none" 
	d="
M1448.182739,385.369568 
	C1449.568481,391.474091 1453.711914,394.564880 1458.592163,396.857788 
	C1468.057495,401.304871 1477.698486,405.394379 1487.040405,410.082825 
	C1496.503052,414.831757 1504.595337,421.526093 1508.678711,431.514313 
	C1515.921753,449.230103 1511.969482,471.587830 1494.877563,484.077850 
	C1483.434448,492.439850 1470.658447,495.771545 1456.687256,496.068878 
	C1441.898926,496.383667 1427.503906,494.797363 1413.818604,488.929108 
	C1412.574463,488.395569 1411.149780,486.487152 1411.123901,485.191010 
	C1410.908447,474.383179 1411.001709,463.569214 1411.001709,453.362061 
	C1419.190552,456.993530 1427.316040,460.991516 1435.735596,464.222687 
	C1444.648804,467.643341 1453.961182,468.013977 1463.372070,466.057861 
	C1469.362427,464.812775 1473.820190,461.823273 1474.884399,455.587769 
	C1475.998291,449.062683 1474.066040,443.329315 1467.925537,440.051544 
	C1461.173340,436.447296 1454.198486,433.253082 1447.268799,429.990234 
	C1435.809937,424.594666 1423.714233,419.785248 1416.928467,408.256653 
	C1406.412598,390.391113 1408.628540,364.433960 1427.575439,350.198212 
	C1443.847656,337.972107 1462.494995,336.045288 1481.950317,338.981384 
	C1488.215576,339.926880 1494.402344,341.500763 1500.537231,343.119690 
	C1501.881592,343.474457 1503.815796,345.222717 1503.843994,346.369415 
	C1504.100586,356.795105 1503.994629,367.229706 1503.994629,376.715088 
	C1494.491821,373.566040 1485.341064,369.598602 1475.779541,367.707123 
	C1469.806030,366.525452 1462.917236,367.487671 1456.975342,369.272949 
	C1449.898315,371.399261 1447.077637,377.478210 1448.182739,385.369568 
z"/>
<path fill="#737373" opacity="1.000000" stroke="none" 
	d="
M1094.444092,368.228943 
	C1082.616699,367.504333 1071.697266,369.011017 1062.194824,375.974243 
	C1051.891846,383.523895 1046.091553,393.801392 1043.973145,406.336182 
	C1042.015381,417.920593 1042.611938,429.218445 1046.963745,440.230652 
	C1052.316772,453.776703 1062.357544,461.833130 1076.356323,464.959351 
	C1093.842285,468.864380 1108.829834,462.367706 1123.439575,452.891052 
	C1123.650879,453.946045 1123.971436,454.811066 1123.975098,455.677399 
	C1124.012451,464.676666 1124.179688,473.682800 1123.849731,482.670105 
	C1123.782471,484.503418 1122.225586,487.057343 1120.621338,487.930878 
	C1111.457397,492.920624 1101.470215,495.574921 1091.088989,495.912598 
	C1077.095581,496.367767 1063.119385,496.559570 1049.685669,491.089630 
	C1031.348633,483.623047 1018.525146,470.797546 1011.064880,452.629974 
	C1006.327942,441.094452 1004.272156,428.924164 1005.071777,416.496735 
	C1006.497437,394.338623 1012.507141,373.948395 1029.361816,358.130951 
	C1040.443115,347.731567 1053.808716,341.636688 1068.509033,339.198486 
	C1085.221802,336.426422 1101.973389,337.143524 1118.177246,342.975098 
	C1120.024048,343.639740 1121.820557,344.444336 1123.795166,345.246948 
	C1123.795166,356.933105 1123.795166,368.562744 1123.795166,379.161713 
	C1114.415039,375.669159 1104.641357,372.030060 1094.444092,368.228943 
z"/>
<path fill="#737373" opacity="1.000000" stroke="none" 
	d="
M1191.682983,389.736969 
	C1187.424805,397.606171 1186.129028,405.866730 1186.068604,414.229584 
	C1185.880981,440.211761 1186.000000,466.196136 1186.000000,492.589691 
	C1174.142578,492.589691 1162.426392,492.589691 1150.353027,492.589691 
	C1150.353027,442.371338 1150.353027,392.004120 1150.353027,341.318054 
	C1162.044800,341.318054 1173.759644,341.318054 1185.804199,341.318054 
	C1185.804199,348.710297 1185.804199,355.987274 1185.804199,363.264282 
	C1186.099731,363.394806 1186.395264,363.525299 1186.690796,363.655823 
	C1187.429199,362.569458 1188.267212,361.537292 1188.890991,360.388641 
	C1199.086548,341.615112 1214.350220,336.262329 1234.451538,339.865967 
	C1237.705566,340.449371 1238.039062,341.951447 1238.024780,344.547455 
	C1237.965210,355.372620 1237.999634,366.198273 1237.999634,377.933289 
	C1229.596313,372.907013 1220.732422,370.431152 1211.650391,372.373474 
	C1202.340576,374.364563 1195.856812,380.690613 1191.682983,389.736969 
z"/>
<path fill="#737373" opacity="1.000000" stroke="none" 
	d="
M982.000000,436.000000 
	C982.000000,455.127045 982.000000,473.754089 982.000000,492.689514 
	C969.606689,492.689514 957.559143,492.689514 945.254883,492.689514 
	C945.254883,442.293732 945.254883,392.045990 945.254883,341.398926 
	C957.209961,341.398926 969.259705,341.398926 982.000000,341.398926 
	C982.000000,372.685211 982.000000,404.092590 982.000000,436.000000 
z"/>
<path fill="#737373" opacity="1.000000" stroke="none" 
	d="
M942.004883,296.338013 
	C944.128662,285.549042 950.108704,279.491638 960.767639,277.446381 
	C966.724548,276.303314 978.252563,280.159454 981.806152,285.409058 
	C986.764160,292.733368 987.280151,302.369476 983.535522,309.034790 
	C975.867981,322.682709 951.701904,322.788177 944.751892,309.004150 
	C942.927063,305.385010 942.870056,300.874512 942.004883,296.338013 
z"/>
<path fill="#FFFFFF" opacity="1.000000" stroke="none" 
	d="
M1336.536865,372.224609 
	C1351.801392,381.696808 1356.428467,396.178528 1356.975586,412.623596 
	C1357.366211,424.364319 1356.451050,435.820953 1351.161377,446.730743 
	C1345.615356,458.169098 1336.307007,464.323273 1324.350342,465.792023 
	C1310.592529,467.481995 1297.778931,464.663513 1287.988281,453.529053 
	C1282.612427,447.415436 1279.876465,440.066071 1278.309570,432.387909 
	C1275.910156,420.631409 1276.199585,408.728333 1279.451538,397.152161 
	C1286.718384,371.285339 1311.697632,361.699768 1336.536865,372.224609 
z"/>
<path fill="#FFFFFF" opacity="1.000000" stroke="none" 
	d="
M1623.215332,462.343079 
	C1606.864014,469.635529 1587.092407,466.288971 1576.004761,454.448883 
	C1569.792603,447.815277 1566.625000,439.589966 1565.110107,430.805634 
	C1562.957153,418.321533 1563.979858,406.061981 1567.891602,393.913177 
	C1577.281250,364.751709 1615.080200,360.261810 1633.095581,379.694977 
	C1639.882568,387.016052 1643.147705,396.360931 1643.787964,406.017395 
	C1644.624023,418.626892 1645.062988,431.457062 1639.978760,443.564606 
	C1636.606689,451.594513 1631.940430,458.530243 1623.215332,462.343079 
z"/>
</svg>