<svg version="1.1" id="Layer_1" xmlns="http://www.w3.org/2000/svg" xmlns:xlink="http://www.w3.org/1999/xlink" x="0px" y="0px"
	 width="100%" viewBox="0 0 3000 2000" enable-background="new 0 0 3000 2000" xml:space="preserve">
<path fill="#47704C" opacity="1.000000" stroke="none" 
	d="
M1960.000000,2002.000000 
	C1306.666626,2002.000000 654.333313,2002.000000 2.000000,2002.000000 
	C2.000000,1335.333374 2.000000,668.666687 2.000000,2.000000 
	C1002.000000,2.000000 2002.000000,2.000000 3002.000000,2.000000 
	C3002.000000,668.666687 3002.000000,1335.333374 3002.000000,2002.000000 
	C2655.000000,2002.000000 2308.000000,2002.000000 1960.000000,2002.000000 
M1826.558105,1194.732788 
	C1827.514648,1194.417725 1828.471069,1194.102783 1829.562012,1191.944580 
	C1829.598389,1118.980469 1829.644043,1046.016235 1829.667969,973.052124 
	C1829.683716,925.075378 1829.690186,877.098633 1829.651489,829.121887 
	C1829.641235,816.523926 1829.454712,816.371338 1816.642944,816.336121 
	C1798.651733,816.286743 1780.660156,816.270935 1762.669312,816.367065 
	C1758.789062,816.387817 1754.911743,816.945923 1749.672363,817.365417 
	C1750.145630,890.029053 1748.582397,961.826721 1750.721191,1034.857666 
	C1742.148071,1026.339722 1735.153198,1018.218872 1727.008667,1011.489075 
	C1676.955811,970.129333 1626.637329,929.091370 1576.419556,887.931213 
	C1548.351196,864.925537 1520.357666,841.828003 1492.184692,818.951599 
	C1488.847534,816.241821 1486.062378,811.881470 1480.742065,812.251831 
	C1478.377319,827.314758 1479.274170,1179.607788 1482.031128,1188.174316 
	C1507.057861,1188.399170 1532.493042,1188.462158 1558.614624,1188.125488 
	C1560.700195,1168.890503 1559.381714,1150.961792 1559.621582,1133.091797 
	C1559.858521,1115.436890 1559.678711,1097.776245 1559.680054,1080.118164 
	C1559.681274,1062.126953 1559.680298,1044.135620 1559.680298,1026.144409 
	C1559.680298,1008.354980 1559.680298,990.565552 1559.680298,971.765137 
	C1566.658203,978.292847 1572.841675,984.695312 1579.647827,990.348389 
	C1645.217529,1044.810181 1710.878784,1099.161865 1776.545776,1153.506104 
	C1792.955444,1167.086304 1809.480957,1180.526367 1826.558105,1194.732788 
M2511.687744,1046.855469 
	C2511.737305,1046.435425 2511.786621,1046.015503 2513.473389,1045.518066 
	C2530.361084,1043.331055 2547.086182,1040.459717 2562.705566,1033.228638 
	C2590.572510,1020.327576 2610.751465,1000.249878 2621.235352,970.928711 
	C2627.354248,953.816040 2627.115234,936.188354 2625.776367,918.554321 
	C2622.224854,871.781067 2597.907959,841.662231 2553.126709,827.374451 
	C2527.761475,819.281555 2501.551270,816.773499 2475.258057,816.523376 
	C2413.599609,815.936768 2351.931885,816.324341 2290.268066,816.329163 
	C2287.603027,816.329346 2284.932373,816.356873 2282.274414,816.527161 
	C2278.764404,816.752014 2276.809570,818.726074 2276.536377,822.229797 
	C2276.380859,824.220764 2276.346680,826.225281 2276.346680,828.223694 
	C2276.338379,944.218445 2276.331787,1060.213135 2276.377197,1176.207886 
	C2276.378662,1179.764038 2276.936768,1183.319946 2277.208496,1186.556763 
	C2288.408447,1189.307495 2350.655762,1188.885498 2359.031738,1185.983887 
	C2359.233887,1182.034546 2359.633057,1177.775635 2359.640869,1173.515991 
	C2359.695801,1142.850708 2359.670898,1112.185425 2359.672363,1081.520142 
	C2359.673340,1057.521240 2359.628662,1033.522095 2359.730713,1009.523621 
	C2359.745117,1006.115295 2358.724365,1002.273621 2362.525146,998.755310 
	C2365.635254,1001.599731 2368.647461,1004.123962 2371.398438,1006.906433 
	C2395.997559,1031.788452 2420.588135,1056.679199 2445.107910,1081.639282 
	C2477.800781,1114.919312 2510.464600,1148.228149 2543.038574,1181.624512 
	C2547.192627,1185.883423 2551.435059,1188.486694 2557.770020,1188.430542 
	C2588.099854,1188.161621 2618.432861,1188.327759 2648.764893,1188.263672 
	C2650.905273,1188.259033 2653.044434,1187.645020 2656.415039,1187.124146 
	C2653.948975,1184.170654 2652.476807,1182.050049 2650.658936,1180.285645 
	C2631.535156,1161.723145 2612.350342,1143.223511 2593.194092,1124.694458 
	C2572.121094,1104.311646 2551.139404,1083.833374 2529.942627,1063.580322 
	C2524.193604,1058.087158 2517.810547,1053.257812 2511.687744,1046.855469 
M857.782349,1116.767578 
	C841.677063,1132.204346 826.021240,1148.148438 809.335144,1162.929321 
	C793.845642,1176.650269 776.779968,1188.467773 757.558289,1196.582520 
	C724.743896,1210.435425 690.211975,1213.108398 655.432678,1209.009766 
	C607.844666,1203.401367 566.915710,1183.001343 533.259949,1148.623779 
	C483.562103,1097.860229 465.073608,1036.726562 475.515228,967.186829 
	C483.384399,914.779236 509.441193,872.236694 551.933716,840.315674 
	C608.703918,797.668945 671.526917,785.338501 739.973572,804.821716 
	C749.419128,807.510376 756.018005,806.591309 761.713196,798.844971 
	C762.498535,797.776794 763.484619,796.854614 764.391846,795.877869 
	C788.415405,770.013672 811.630615,743.317627 840.368103,722.311340 
	C841.851868,721.226807 842.829895,719.450378 844.523193,717.421021 
	C841.813293,715.557922 839.804138,713.901428 837.560242,712.673950 
	C773.073730,677.396301 704.049072,665.425476 631.614685,675.013611 
	C553.223206,685.390381 487.078857,720.780762 434.396332,779.517700 
	C367.551544,854.044434 343.356537,943.089355 350.824341,1041.463989 
	C354.043274,1083.867188 367.576141,1123.587036 388.272369,1160.788696 
	C422.536743,1222.379028 471.667297,1268.568604 534.508484,1299.875122 
	C577.721069,1321.402832 623.850830,1332.711304 672.214050,1334.070923 
	C722.251160,1335.477661 770.465027,1327.172852 816.142273,1306.049805 
	C852.241211,1289.355957 883.868225,1266.254883 912.110474,1238.443481 
	C923.501709,1227.226074 934.470703,1215.575073 945.497253,1203.993408 
	C964.105042,1184.448730 982.680054,1164.871826 1001.134949,1145.183105 
	C1034.172119,1109.937256 1067.104736,1074.593384 1100.091309,1039.300049 
	C1113.739746,1024.697144 1127.516846,1010.212708 1141.027710,995.483765 
	C1146.598022,989.411133 1146.300903,987.926147 1140.419434,982.372559 
	C1120.313721,963.387207 1100.196655,944.413940 1080.086304,925.433472 
	C1068.563110,914.557739 1067.967529,914.430664 1054.391357,922.124146 
	C1050.337646,924.421387 1046.183472,926.712708 1042.611084,929.657043 
	C1030.284546,939.816833 1017.344788,949.426575 1006.179199,960.763245 
	C976.490479,990.906677 947.560059,1021.798645 918.416809,1052.477173 
	C898.454102,1073.491577 878.639954,1094.646973 857.782349,1116.767578 
M1151.299316,1318.338623 
	C1233.036011,1291.394043 1296.232544,1241.235840 1337.846802,1165.779297 
	C1379.036743,1091.092407 1391.594116,1010.708984 1372.854126,927.710449 
	C1349.247070,823.155212 1285.322876,749.090454 1189.433350,702.611877 
	C1133.196533,675.353333 1073.422241,666.288757 1011.363586,672.558228 
	C937.125977,680.058105 874.035278,711.501831 821.310730,763.598938 
	C793.120361,791.453796 766.274353,820.677612 739.042175,849.492065 
	C695.789856,895.257629 652.711792,941.187988 609.586731,987.073792 
	C602.514709,994.598511 595.375977,1002.076782 588.647644,1009.902832 
	C583.697571,1015.660583 583.809265,1017.229858 589.301025,1022.448364 
	C610.554443,1042.644531 632.086121,1062.549194 653.233154,1082.855103 
	C659.045776,1088.436646 664.698975,1088.786865 671.261108,1085.114746 
	C673.876831,1083.651001 676.536316,1082.257324 679.088806,1080.689819 
	C700.000305,1067.848389 717.727478,1051.219360 734.572510,1033.606079 
	C756.450500,1010.730286 778.150696,987.684265 799.906738,964.691895 
	C821.201782,942.186951 842.493286,919.678589 863.744690,897.132446 
	C883.859680,875.792053 903.867249,854.355591 927.159912,836.319153 
	C950.068909,818.579834 974.461670,803.998840 1003.532898,798.737976 
	C1027.622314,794.378662 1051.754761,792.540161 1076.125488,796.043030 
	C1128.062866,803.508179 1171.718140,826.722534 1205.989136,866.325317 
	C1244.248901,910.537476 1260.554443,962.327820 1256.405518,1020.703064 
	C1254.287476,1050.502930 1246.059570,1078.398560 1231.253296,1104.210693 
	C1204.882935,1150.183228 1165.586426,1180.750366 1115.940552,1198.003784 
	C1090.275757,1206.923218 1063.755859,1211.009155 1036.310913,1208.567627 
	C1019.612671,1207.081909 1003.171997,1204.720947 987.310852,1199.443604 
	C980.266357,1197.099487 975.394897,1198.338623 970.598816,1203.849731 
	C963.167603,1212.388794 955.326782,1220.583130 947.448608,1228.719360 
	C930.299500,1246.429810 913.581726,1264.607422 893.580566,1279.295410 
	C890.743103,1281.379272 888.237488,1283.915039 885.536926,1286.277710 
	C895.660583,1296.601807 936.893311,1314.884766 969.052917,1322.634644 
	C1029.555664,1337.214600 1089.883057,1336.627930 1151.299316,1318.338623 
M1884.522461,1090.462646 
	C1898.545898,1114.926025 1917.563843,1134.643555 1941.148193,1150.011841 
	C1985.715576,1179.053589 2035.403198,1191.237915 2087.805176,1193.458496 
	C2107.043701,1194.273926 2126.477051,1193.838379 2145.648438,1192.082397 
	C2172.793457,1189.595947 2199.799316,1185.512573 2226.818115,1181.774048 
	C2234.956299,1180.648193 2235.542969,1179.604614 2235.597900,1171.320923 
	C2235.728516,1151.656860 2235.682373,1131.990967 2235.572510,1112.326660 
	C2235.558838,1109.841309 2234.737061,1107.360352 2234.357422,1105.251465 
	C2232.835938,1104.874756 2232.165283,1104.496582 2231.584229,1104.603638 
	C2229.630615,1104.963745 2227.682861,1105.408203 2225.779297,1105.975952 
	C2182.376709,1118.923096 2138.138184,1125.731323 2092.748779,1124.340210 
	C2065.860840,1123.516113 2039.730957,1119.190918 2015.121582,1107.820068 
	C1981.082642,1092.092285 1959.000488,1066.595337 1952.587891,1029.094971 
	C1947.945923,1001.948486 1950.764160,975.266174 1961.091797,949.692261 
	C1964.172485,942.063660 1968.514404,934.759033 1973.310059,928.042542 
	C1988.596680,906.633118 2010.706543,895.238953 2035.327148,888.653137 
	C2070.177490,879.331055 2105.652344,878.230774 2141.342773,882.980774 
	C2166.172363,886.285400 2190.416504,892.176270 2214.332764,899.539734 
	C2217.999268,900.668579 2221.847412,901.207458 2226.037354,902.111023 
	C2226.718506,899.127136 2227.511475,897.250000 2227.520508,895.369080 
	C2227.623535,874.038452 2227.719238,852.706360 2227.559326,831.376648 
	C2227.504883,824.131958 2226.848389,823.683044 2218.674561,822.096558 
	C2160.043701,810.716797 2101.084717,807.563232 2041.819580,816.095337 
	C2009.249634,820.784363 1978.149658,830.333679 1949.577026,847.139038 
	C1915.652832,867.091858 1890.853271,894.914001 1876.950073,931.957092 
	C1870.479126,949.197998 1867.140137,967.102966 1865.351562,985.477966 
	C1861.808838,1021.875000 1866.835205,1056.528687 1884.522461,1090.462646 
M713.427124,1080.445068 
	C701.810547,1088.605225 690.193970,1096.765381 677.727478,1105.522583 
	C680.974731,1109.056885 683.660889,1112.369873 686.738708,1115.266724 
	C706.129211,1133.517090 725.547913,1151.738403 745.081726,1169.834961 
	C754.067139,1178.159302 754.303711,1178.211426 764.870056,1172.155273 
	C787.907654,1158.951538 807.436523,1141.279053 825.740234,1122.367188 
	C853.049866,1094.150024 879.694641,1065.289795 906.659241,1036.737915 
	C926.084290,1016.169556 945.682556,995.763611 964.999634,975.094604 
	C990.481812,947.829224 1015.636475,920.232910 1049.045776,902.103943 
	C1050.142090,901.509033 1050.956177,900.393921 1052.767456,898.722595 
	C1050.315308,895.800476 1048.295166,892.874695 1045.775269,890.473450 
	C1027.220825,872.792114 1008.725464,855.043396 989.889404,837.664978 
	C976.843201,825.628540 975.734192,825.648132 960.729187,835.102051 
	C938.894348,848.859192 919.945129,866.091370 902.227173,884.725281 
	C879.978760,908.123901 857.772461,931.562561 835.604309,955.037231 
	C815.721558,976.091797 796.144897,997.440735 776.010376,1018.250732 
	C755.887451,1039.048828 736.906250,1061.012695 713.427124,1080.445068 
z"/>
<path fill="#54B948" opacity="1.000000" stroke="none" 
	d="
M858.270874,1116.253540 
	C878.639954,1094.646973 898.454102,1073.491577 918.416809,1052.477173 
	C947.560059,1021.798645 976.490479,990.906677 1006.179199,960.763245 
	C1017.344788,949.426575 1030.284546,939.816833 1042.611084,929.657043 
	C1046.183472,926.712708 1050.337646,924.421387 1054.391357,922.124146 
	C1067.967529,914.430664 1068.563110,914.557739 1080.086304,925.433472 
	C1100.196655,944.413940 1120.313721,963.387207 1140.419434,982.372559 
	C1146.300903,987.926147 1146.598022,989.411133 1141.027710,995.483765 
	C1127.516846,1010.212708 1113.739746,1024.697144 1100.091309,1039.300049 
	C1067.104736,1074.593384 1034.172119,1109.937256 1001.134949,1145.183105 
	C982.680054,1164.871826 964.105042,1184.448730 945.497253,1203.993408 
	C934.470703,1215.575073 923.501709,1227.226074 912.110474,1238.443481 
	C883.868225,1266.254883 852.241211,1289.355957 816.142273,1306.049805 
	C770.465027,1327.172852 722.251160,1335.477661 672.214050,1334.070923 
	C623.850830,1332.711304 577.721069,1321.402832 534.508484,1299.875122 
	C471.667297,1268.568604 422.536743,1222.379028 388.272369,1160.788696 
	C367.576141,1123.587036 354.043274,1083.867188 350.824341,1041.463989 
	C343.356537,943.089355 367.551544,854.044434 434.396332,779.517700 
	C487.078857,720.780762 553.223206,685.390381 631.614685,675.013611 
	C704.049072,665.425476 773.073730,677.396301 837.560242,712.673950 
	C839.804138,713.901428 841.813293,715.557922 844.523193,717.421021 
	C842.829895,719.450378 841.851868,721.226807 840.368103,722.311340 
	C811.630615,743.317627 788.415405,770.013672 764.391846,795.877869 
	C763.484619,796.854614 762.498535,797.776794 761.713196,798.844971 
	C756.018005,806.591309 749.419128,807.510376 739.973572,804.821716 
	C671.526917,785.338501 608.703918,797.668945 551.933716,840.315674 
	C509.441193,872.236694 483.384399,914.779236 475.515228,967.186829 
	C465.073608,1036.726562 483.562103,1097.860229 533.259949,1148.623779 
	C566.915710,1183.001343 607.844666,1203.401367 655.432678,1209.009766 
	C690.211975,1213.108398 724.743896,1210.435425 757.558289,1196.582520 
	C776.779968,1188.467773 793.845642,1176.650269 809.335144,1162.929321 
	C826.021240,1148.148438 841.677063,1132.204346 858.270874,1116.253540 
z"/>
<path fill="#54B948" opacity="1.000000" stroke="none" 
	d="
M1150.535767,1318.573608 
	C1089.883057,1336.627930 1029.555664,1337.214600 969.052917,1322.634644 
	C936.893311,1314.884766 895.660583,1296.601807 885.536926,1286.277710 
	C888.237488,1283.915039 890.743103,1281.379272 893.580566,1279.295410 
	C913.581726,1264.607422 930.299500,1246.429810 947.448608,1228.719360 
	C955.326782,1220.583130 963.167603,1212.388794 970.598816,1203.849731 
	C975.394897,1198.338623 980.266357,1197.099487 987.310852,1199.443604 
	C1003.171997,1204.720947 1019.612671,1207.081909 1036.310913,1208.567627 
	C1063.755859,1211.009155 1090.275757,1206.923218 1115.940552,1198.003784 
	C1165.586426,1180.750366 1204.882935,1150.183228 1231.253296,1104.210693 
	C1246.059570,1078.398560 1254.287476,1050.502930 1256.405518,1020.703064 
	C1260.554443,962.327820 1244.248901,910.537476 1205.989136,866.325317 
	C1171.718140,826.722534 1128.062866,803.508179 1076.125488,796.043030 
	C1051.754761,792.540161 1027.622314,794.378662 1003.532898,798.737976 
	C974.461670,803.998840 950.068909,818.579834 927.159912,836.319153 
	C903.867249,854.355591 883.859680,875.792053 863.744690,897.132446 
	C842.493286,919.678589 821.201782,942.186951 799.906738,964.691895 
	C778.150696,987.684265 756.450500,1010.730286 734.572510,1033.606079 
	C717.727478,1051.219360 700.000305,1067.848389 679.088806,1080.689819 
	C676.536316,1082.257324 673.876831,1083.651001 671.261108,1085.114746 
	C664.698975,1088.786865 659.045776,1088.436646 653.233154,1082.855103 
	C632.086121,1062.549194 610.554443,1042.644531 589.301025,1022.448364 
	C583.809265,1017.229858 583.697571,1015.660583 588.647644,1009.902832 
	C595.375977,1002.076782 602.514709,994.598511 609.586731,987.073792 
	C652.711792,941.187988 695.789856,895.257629 739.042175,849.492065 
	C766.274353,820.677612 793.120361,791.453796 821.310730,763.598938 
	C874.035278,711.501831 937.125977,680.058105 1011.363586,672.558228 
	C1073.422241,666.288757 1133.196533,675.353333 1189.433350,702.611877 
	C1285.322876,749.090454 1349.247070,823.155212 1372.854126,927.710449 
	C1391.594116,1010.708984 1379.036743,1091.092407 1337.846802,1165.779297 
	C1296.232544,1241.235840 1233.036011,1291.394043 1150.535767,1318.573608 
z"/>
<path fill="#959FA9" opacity="1.000000" stroke="none" 
	d="
M2511.718262,1048.123779 
	C2517.810547,1053.257812 2524.193604,1058.087158 2529.942627,1063.580322 
	C2551.139404,1083.833374 2572.121094,1104.311646 2593.194092,1124.694458 
	C2612.350342,1143.223511 2631.535156,1161.723145 2650.658936,1180.285645 
	C2652.476807,1182.050049 2653.948975,1184.170654 2656.415039,1187.124146 
	C2653.044434,1187.645020 2650.905273,1188.259033 2648.764893,1188.263672 
	C2618.432861,1188.327759 2588.099854,1188.161621 2557.770020,1188.430542 
	C2551.435059,1188.486694 2547.192627,1185.883423 2543.038574,1181.624512 
	C2510.464600,1148.228149 2477.800781,1114.919312 2445.107910,1081.639282 
	C2420.588135,1056.679199 2395.997559,1031.788452 2371.398438,1006.906433 
	C2368.647461,1004.123962 2365.635254,1001.599731 2362.525146,998.755310 
	C2358.724365,1002.273621 2359.745117,1006.115295 2359.730713,1009.523621 
	C2359.628662,1033.522095 2359.673340,1057.521240 2359.672363,1081.520142 
	C2359.670898,1112.185425 2359.695801,1142.850708 2359.640869,1173.515991 
	C2359.633057,1177.775635 2359.233887,1182.034546 2359.031738,1185.983887 
	C2350.655762,1188.885498 2288.408447,1189.307495 2277.208496,1186.556763 
	C2276.936768,1183.319946 2276.378662,1179.764038 2276.377197,1176.207886 
	C2276.331787,1060.213135 2276.338379,944.218445 2276.346680,828.223694 
	C2276.346680,826.225281 2276.380859,824.220764 2276.536377,822.229797 
	C2276.809570,818.726074 2278.764404,816.752014 2282.274414,816.527161 
	C2284.932373,816.356873 2287.603027,816.329346 2290.268066,816.329163 
	C2351.931885,816.324341 2413.599609,815.936768 2475.258057,816.523376 
	C2501.551270,816.773499 2527.761475,819.281555 2553.126709,827.374451 
	C2597.907959,841.662231 2622.224854,871.781067 2625.776367,918.554321 
	C2627.115234,936.188354 2627.354248,953.816040 2621.235352,970.928711 
	C2610.751465,1000.249878 2590.572510,1020.327576 2562.705566,1033.228638 
	C2547.086182,1040.459717 2530.361084,1043.331055 2512.377930,1045.516846 
	C2511.427979,1046.385132 2511.573242,1047.254517 2511.718262,1048.123779 
M2389.019287,991.684387 
	C2396.017822,991.684509 2403.018555,991.799194 2410.014404,991.663025 
	C2430.646240,991.261536 2451.283691,990.963440 2471.904297,990.222839 
	C2484.298828,989.777588 2496.331543,987.053528 2507.766357,982.117981 
	C2530.639648,972.245361 2542.402588,955.066345 2542.343994,929.884033 
	C2542.291016,907.036377 2531.847900,892.422913 2509.710205,886.989624 
	C2499.119141,884.390259 2488.047607,882.705505 2477.163574,882.536194 
	C2441.846191,881.986694 2406.514893,882.299194 2371.188965,882.375488 
	C2367.692627,882.383057 2364.197998,883.046875 2359.739746,883.505066 
	C2359.707275,919.740845 2359.435303,954.876282 2359.931396,991.240601 
	C2369.916992,991.404053 2378.474121,991.544128 2389.019287,991.684387 
z"/>
<path fill="#959FA9" opacity="1.000000" stroke="none" 
	d="
M1825.953369,1194.030762 
	C1809.480957,1180.526367 1792.955444,1167.086304 1776.545776,1153.506104 
	C1710.878784,1099.161865 1645.217529,1044.810181 1579.647827,990.348389 
	C1572.841675,984.695312 1566.658203,978.292847 1559.680298,971.765137 
	C1559.680298,990.565552 1559.680298,1008.354980 1559.680298,1026.144409 
	C1559.680298,1044.135620 1559.681274,1062.126953 1559.680054,1080.118164 
	C1559.678711,1097.776245 1559.858521,1115.436890 1559.621582,1133.091797 
	C1559.381714,1150.961792 1560.700195,1168.890503 1558.614624,1188.125488 
	C1532.493042,1188.462158 1507.057861,1188.399170 1482.031128,1188.174316 
	C1479.274170,1179.607788 1478.377319,827.314758 1480.742065,812.251831 
	C1486.062378,811.881470 1488.847534,816.241821 1492.184692,818.951599 
	C1520.357666,841.828003 1548.351196,864.925537 1576.419556,887.931213 
	C1626.637329,929.091370 1676.955811,970.129333 1727.008667,1011.489075 
	C1735.153198,1018.218872 1742.148071,1026.339722 1750.721191,1034.857666 
	C1748.582397,961.826721 1750.145630,890.029053 1749.672363,817.365417 
	C1754.911743,816.945923 1758.789062,816.387817 1762.669312,816.367065 
	C1780.660156,816.270935 1798.651733,816.286743 1816.642944,816.336121 
	C1829.454712,816.371338 1829.641235,816.523926 1829.651489,829.121887 
	C1829.690186,877.098633 1829.683716,925.075378 1829.667969,973.052124 
	C1829.644043,1046.016235 1829.598389,1118.980469 1828.915039,1192.892334 
	C1827.496582,1193.903687 1826.724976,1193.967285 1825.953369,1194.030762 
z"/>
<path fill="#959FA8" opacity="1.000000" stroke="none" 
	d="
M1884.179932,1089.809937 
	C1866.835205,1056.528687 1861.808838,1021.875000 1865.351562,985.477966 
	C1867.140137,967.102966 1870.479126,949.197998 1876.950073,931.957092 
	C1890.853271,894.914001 1915.652832,867.091858 1949.577026,847.139038 
	C1978.149658,830.333679 2009.249634,820.784363 2041.819580,816.095337 
	C2101.084717,807.563232 2160.043701,810.716797 2218.674561,822.096558 
	C2226.848389,823.683044 2227.504883,824.131958 2227.559326,831.376648 
	C2227.719238,852.706360 2227.623535,874.038452 2227.520508,895.369080 
	C2227.511475,897.250000 2226.718506,899.127136 2226.037354,902.111023 
	C2221.847412,901.207458 2217.999268,900.668579 2214.332764,899.539734 
	C2190.416504,892.176270 2166.172363,886.285400 2141.342773,882.980774 
	C2105.652344,878.230774 2070.177490,879.331055 2035.327148,888.653137 
	C2010.706543,895.238953 1988.596680,906.633118 1973.310059,928.042542 
	C1968.514404,934.759033 1964.172485,942.063660 1961.091797,949.692261 
	C1950.764160,975.266174 1947.945923,1001.948486 1952.587891,1029.094971 
	C1959.000488,1066.595337 1981.082642,1092.092285 2015.121582,1107.820068 
	C2039.730957,1119.190918 2065.860840,1123.516113 2092.748779,1124.340210 
	C2138.138184,1125.731323 2182.376709,1118.923096 2225.779297,1105.975952 
	C2227.682861,1105.408203 2229.630615,1104.963745 2231.584229,1104.603638 
	C2232.165283,1104.496582 2232.835938,1104.874756 2234.357422,1105.251465 
	C2234.737061,1107.360352 2235.558838,1109.841309 2235.572510,1112.326660 
	C2235.682373,1131.990967 2235.728516,1151.656860 2235.597900,1171.320923 
	C2235.542969,1179.604614 2234.956299,1180.648193 2226.818115,1181.774048 
	C2199.799316,1185.512573 2172.793457,1189.595947 2145.648438,1192.082397 
	C2126.477051,1193.838379 2107.043701,1194.273926 2087.805176,1193.458496 
	C2035.403198,1191.237915 1985.715576,1179.053589 1941.148193,1150.011841 
	C1917.563843,1134.643555 1898.545898,1114.926025 1884.179932,1089.809937 
z"/>
<path fill="#54B848" opacity="1.000000" stroke="none" 
	d="
M713.989136,1080.012573 
	C736.906250,1061.012695 755.887451,1039.048828 776.010376,1018.250732 
	C796.144897,997.440735 815.721558,976.091797 835.604309,955.037231 
	C857.772461,931.562561 879.978760,908.123901 902.227173,884.725281 
	C919.945129,866.091370 938.894348,848.859192 960.729187,835.102051 
	C975.734192,825.648132 976.843201,825.628540 989.889404,837.664978 
	C1008.725464,855.043396 1027.220825,872.792114 1045.775269,890.473450 
	C1048.295166,892.874695 1050.315308,895.800476 1052.767456,898.722595 
	C1050.956177,900.393921 1050.142090,901.509033 1049.045776,902.103943 
	C1015.636475,920.232910 990.481812,947.829224 964.999634,975.094604 
	C945.682556,995.763611 926.084290,1016.169556 906.659241,1036.737915 
	C879.694641,1065.289795 853.049866,1094.150024 825.740234,1122.367188 
	C807.436523,1141.279053 787.907654,1158.951538 764.870056,1172.155273 
	C754.303711,1178.211426 754.067139,1178.159302 745.081726,1169.834961 
	C725.547913,1151.738403 706.129211,1133.517090 686.738708,1115.266724 
	C683.660889,1112.369873 680.974731,1109.056885 677.727478,1105.522583 
	C690.193970,1096.765381 701.810547,1088.605225 713.989136,1080.012573 
z"/>
<path fill="#819292" opacity="1.000000" stroke="none" 
	d="
M2511.703125,1047.489624 
	C2511.573242,1047.254517 2511.427979,1046.385132 2511.559326,1045.555664 
	C2511.786621,1046.015503 2511.737305,1046.435425 2511.703125,1047.489624 
z"/>
<path fill="#829391" opacity="1.000000" stroke="none" 
	d="
M1826.255737,1194.381836 
	C1826.724976,1193.967285 1827.496582,1193.903687 1828.847900,1193.813965 
	C1828.471069,1194.102783 1827.514648,1194.417725 1826.255737,1194.381836 
z"/>
<path fill="#47704C" opacity="1.000000" stroke="none" 
	d="
M2388.025391,991.684326 
	C2378.474121,991.544128 2369.916992,991.404053 2359.931396,991.240601 
	C2359.435303,954.876282 2359.707275,919.740845 2359.739746,883.505066 
	C2364.197998,883.046875 2367.692627,882.383057 2371.188965,882.375488 
	C2406.514893,882.299194 2441.846191,881.986694 2477.163574,882.536194 
	C2488.047607,882.705505 2499.119141,884.390259 2509.710205,886.989624 
	C2531.847900,892.422913 2542.291016,907.036377 2542.343994,929.884033 
	C2542.402588,955.066345 2530.639648,972.245361 2507.766357,982.117981 
	C2496.331543,987.053528 2484.298828,989.777588 2471.904297,990.222839 
	C2451.283691,990.963440 2430.646240,991.261536 2410.014404,991.663025 
	C2403.018555,991.799194 2396.017822,991.684509 2388.025391,991.684326 
z"/>
</svg>